HIERARCHY
ROOT Hips
{
	OFFSET	0.00	0.00	0.00
	CHANNELS 6 Xposition Yposition Zposition Zrotation Xrotation Yrotation
	JOINT Chest
	{
		OFFSET	0.000000	6.275751	0.000000
		CHANNELS 3 Zrotation Xrotation Yrotation
		JOINT Neck
		{
			OFFSET	0.000000	14.296947	0.000000
			CHANNELS 3 Zrotation Xrotation Yrotation
			JOINT Head
			{
				OFFSET	0.000000	2.637461	0.000000
				CHANNELS 3 Zrotation Xrotation Yrotation
				End Site
				{
					OFFSET	0.000000	4.499004	0.000000
				}
			}
		}
		JOINT LeftCollar
		{
			OFFSET	1.120000	11.362855	1.870000
			CHANNELS 3 Zrotation Xrotation Yrotation
			JOINT LeftUpArm
			{
				OFFSET	4.565688	2.019026	-1.821179
				CHANNELS 3 Zrotation Xrotation Yrotation
				JOINT LeftLowArm
				{
					OFFSET	0.219729	-10.348825	-0.061708
					CHANNELS 3 Zrotation Xrotation Yrotation
					JOINT LeftHand
					{
						OFFSET	0.087892	-10.352228	2.178217
						CHANNELS 3 Zrotation Xrotation Yrotation
						End Site
						{
							OFFSET	0.131837	-6.692379	1.711456
						}
					}
				}
			}
		}
		JOINT RightCollar
		{
			OFFSET	-1.120000	11.362855	1.870000
			CHANNELS 3 Zrotation Xrotation Yrotation
			JOINT RightUpArm
			{
				OFFSET	-4.708080	2.034554	-1.821179
				CHANNELS 3 Zrotation Xrotation Yrotation
				JOINT RightLowArm
				{
					OFFSET	-0.263676	-10.428555	-0.061708
					CHANNELS 3 Zrotation Xrotation Yrotation
					JOINT RightHand
					{
						OFFSET	0.000000	-10.255345	2.178217
						CHANNELS 3 Zrotation Xrotation Yrotation
						End Site
						{
							OFFSET	-0.140882	-6.671274	1.711456
						}
					}
				}
			}
		}
	}
	JOINT LeftUpLeg
	{
		OFFSET	3.910000	0.000000	0.000000
		CHANNELS 3 Zrotation Xrotation Yrotation
		JOINT LeftLowLeg
		{
			OFFSET	-0.441177	-17.569450	1.695613
			CHANNELS 3 Zrotation Xrotation Yrotation
			JOINT LeftFoot
			{
				OFFSET	-0.043946	-17.197315	-1.478076
				CHANNELS 3 Zrotation Xrotation Yrotation
				End Site
				{
					OFFSET	0.000000	-3.933155	5.233925
				}
			}
		}
	}
	JOINT RightUpLeg
	{
		OFFSET	-3.910000	0.000000	0.000000
		CHANNELS 3 Zrotation Xrotation Yrotation
		JOINT RightLowLeg
		{
			OFFSET	0.437741	-17.622387	1.695613
			CHANNELS 3 Zrotation Xrotation Yrotation
			JOINT RightFoot
			{
				OFFSET	0.000000	-17.140001	-1.478076
				CHANNELS 3 Zrotation Xrotation Yrotation
				End Site
				{
					OFFSET	0.000000	-4.038528	5.233925
				}
			}
		}
	}
}
MOTION
Frames: 19
Frame Time: 0.04166667
-7.504891	5.212325	5.838438	-5.113051	-5.815164	115.396446	4.178416	-13.445256	-2.086046	1.111762	11.712116	-2.178569	-1.760797	0.239890	-0.508831	-15.445622	7.537212	0.901620	29.828909	-11.102073	-39.185276	-15.575628	-0.905153	14.316792	-4.279030	2.496553	-0.908599	12.031590	7.583844	-1.411152	-26.236223	-11.115110	41.099579	3.464831	2.793464	-2.650164	12.446221	2.685788	2.649612	1.654778	-7.229236	37.073257	-1.620528	10.782430	-0.451027	0.251921	-11.966627	-0.117614	2.211349	-5.311931	-64.464638	1.495443	3.961212	0.139170	-2.096820	-0.980390	5.191767	
-7.501094	5.213089	5.833817	-5.058842	-5.777918	115.333931	4.195113	-13.376761	-2.102777	1.073267	11.618693	-2.154721	-1.759885	0.256693	-0.508051	-15.597063	7.713811	0.969063	29.940828	-11.260740	-39.099277	-15.543933	-0.880686	14.275806	-4.287838	2.496703	-0.910504	12.110551	7.731569	-1.549831	-26.309887	-11.341442	40.993355	3.474575	2.823295	-2.644285	12.442098	2.685627	2.648733	1.637040	-7.134670	37.128525	-1.617757	10.752071	-0.440217	0.240378	-11.970725	-0.118839	2.214751	-5.230170	-64.357483	1.489903	3.921736	0.097664	-1.996090	-0.936285	5.184026	
-7.496337	5.214385	5.831409	-5.028064	-5.759212	115.308632	4.126280	-13.347810	-2.107689	1.160059	11.536138	-2.229794	-1.760050	0.239744	-0.508618	-15.725658	8.009654	1.034029	30.115992	-11.530488	-39.033535	-15.468066	-0.853426	14.188632	-4.341063	2.497535	-0.921741	12.333766	7.895423	-1.686895	-26.455080	-11.545749	40.765484	3.527026	2.839318	-2.659969	12.459439	2.686408	2.652381	1.617854	-7.066382	37.113754	-1.609688	10.700398	-0.402843	0.199276	-11.973852	-0.123308	2.231342	-5.185567	-64.323845	1.488286	3.889775	0.085889	-2.019261	-0.934933	5.186261	
-7.492194	5.215333	5.828763	-5.093941	-5.815265	115.298264	4.154626	-13.524486	-2.178151	1.145331	11.566155	-2.240717	-1.742562	0.179624	-0.505394	-15.751282	7.960766	1.002204	30.110552	-11.409491	-39.038036	-15.480564	-0.860115	14.206869	-4.333784	2.497396	-0.920208	12.333144	7.914837	-1.664791	-26.487589	-11.471519	41.017467	3.586491	2.786596	-2.710572	12.319466	2.679976	2.623027	1.642611	-7.157123	37.088181	-1.603016	10.721362	-0.368551	0.209809	-11.975969	-0.122118	2.291462	-5.248333	-64.305740	1.486186	3.809921	0.070373	-2.032701	-0.903201	5.188612	
-7.486001	5.215096	5.829855	-5.098404	-5.832165	115.319656	4.136874	-13.567234	-2.249883	1.160397	11.522410	-2.340182	-1.714992	0.159567	-0.497992	-15.822360	8.073258	1.058415	30.200693	-11.553151	-38.985664	-15.521338	-0.909598	14.287353	-4.305156	2.496954	-0.914141	12.407657	8.016932	-1.708662	-26.551674	-11.535948	41.106304	3.631259	2.754952	-2.763969	12.246152	2.676630	2.607649	1.666810	-7.186076	37.027225	-1.595706	10.759973	-0.331381	0.218881	-11.981725	-0.121166	2.312757	-5.246674	-64.299049	1.484207	3.794864	0.055891	-2.024252	-0.901691	5.187891	
-7.476129	5.214469	5.833034	-5.012974	-5.774308	115.354332	4.054466	-13.447249	-2.283062	1.201561	11.435964	-2.464530	-1.679258	0.163732	-0.487484	-15.818853	8.202347	1.132640	30.325787	-11.754450	-37.146881	-15.584476	0.064212	14.140599	-5.247820	2.513607	-1.113790	12.487725	8.072083	-1.776495	-26.567610	-11.608010	40.964149	3.650761	2.748030	-2.772133	12.271208	2.677744	2.612883	1.668985	-7.087666	37.042450	-1.602644	10.789408	-0.365528	0.254831	-11.968590	-0.117287	2.276154	-5.141998	-64.287483	1.480208	3.850881	0.024921	-1.986291	-0.926107	5.183534	
-7.468412	5.214643	5.834434	-4.989056	-5.748129	115.362007	4.024531	-13.430443	-2.264254	1.219997	11.392688	-2.505534	-1.649992	0.154216	-0.479259	-15.779384	8.205675	1.144846	30.309584	-11.848764	-37.363579	-15.593816	0.018516	14.178619	-5.195191	2.512600	-1.102671	12.486342	8.052564	-1.779898	-26.548695	-11.554306	40.832508	3.664567	2.763223	-2.778603	12.325774	2.680262	2.624352	1.671688	-7.047282	37.124634	-1.618299	10.803892	-0.442001	0.304103	-11.953157	-0.112072	2.412095	-5.085674	-64.556343	1.477922	3.647818	0.017657	-1.970012	-0.890509	5.183219	
-7.458109	5.214317	5.836580	-4.997398	-5.755791	115.384323	4.022364	-13.488349	-2.264782	1.238718	11.387628	-2.449627	-1.660748	0.161148	-0.482183	-15.781594	8.223903	1.150551	30.322969	-11.918439	-37.489517	-15.584865	-0.031870	14.206347	-5.186828	2.512443	-1.100885	12.507846	8.059212	-1.746908	-26.565624	-11.488171	40.735325	3.652814	2.806104	-2.767702	12.328440	2.680389	2.624921	1.695356	-7.073804	37.134552	-1.621536	10.854067	-0.456292	0.353066	-11.948258	-0.106816	2.256209	-5.115203	-64.278732	1.475296	3.909676	-0.010711	-2.024113	-0.976489	5.185225	
-7.445780	5.213729	5.840304	-5.005546	-5.767241	115.431206	3.958044	-13.543159	-2.248312	1.351748	11.397579	-2.424409	-1.683620	0.136296	-0.489563	-15.802512	8.391859	1.162184	30.362463	-12.171571	-38.982262	-15.549650	-0.960916	14.341089	-4.352273	2.497712	-0.924138	12.656085	8.078087	-1.737647	-26.664913	-11.453974	40.720791	3.644127	2.823081	-2.761751	12.343364	2.681057	2.628049	1.730482	-7.111073	37.129997	-1.625834	10.927718	-0.475942	0.410708	-11.950131	-0.100499	2.269697	-5.103605	-64.314598	1.475038	3.913355	-0.010627	-1.977238	-1.005987	5.179885	
-7.435325	5.213060	5.844538	-5.023360	-5.776579	115.485603	3.863016	-13.569711	-2.253264	1.493345	11.384435	-2.414422	-1.710879	0.108559	-0.498321	-15.820583	8.610170	1.214005	30.527328	-12.438200	-39.207432	-15.541607	-1.071624	14.389614	-4.331113	2.497369	-0.919605	12.858833	8.128060	-1.758722	-26.780260	-11.512344	40.544415	3.591034	2.876912	-2.713920	12.501061	2.688365	2.661111	1.752965	-7.148970	37.108963	-1.631847	10.977414	-0.502855	0.460894	-11.949467	-0.095067	2.276788	-5.107685	-64.358978	1.474113	3.918318	-0.015786	-1.964952	-1.029796	5.177951	
-7.426684	5.212944	5.848420	-5.047371	-5.791434	115.531654	3.820633	-13.593998	-2.269263	1.551180	11.375920	-2.403605	-1.697002	0.093884	-0.494710	-15.719197	8.578487	1.206012	30.506760	-12.463694	-39.424107	-15.567733	-1.162491	14.436083	-4.302085	2.496897	-0.913508	12.861316	8.023110	-1.727809	-26.749886	-11.442747	40.393208	3.575483	2.917583	-2.686376	12.644787	2.695074	2.691221	1.764910	-7.175619	37.074780	-1.634746	10.986163	-0.515155	0.459866	-11.958065	-0.095117	2.285196	-5.123075	-64.393791	1.473391	3.922359	-0.020906	-1.953612	-1.044546	5.176390	
-7.419546	5.212770	5.850368	-5.059321	-5.809295	115.553688	3.867821	-13.600191	-2.281765	1.514786	11.379142	-2.399622	-1.661882	0.020734	-0.486592	-15.641574	8.405468	1.188169	30.407661	-12.354946	-39.549915	-15.609695	-1.208352	14.491261	-4.317506	2.497161	-0.916739	12.711238	7.910280	-1.649938	-26.651020	-11.344848	40.751991	3.604106	2.882515	-2.728805	12.450760	2.686028	2.650544	1.780981	-7.184313	37.082233	-1.637911	10.984639	-0.530597	0.448521	-11.969676	-0.096233	2.309211	-5.129857	-64.397316	1.470576	3.907947	-0.041338	-1.943229	-1.045791	5.175431	
-7.413238	5.212483	5.852197	-5.072496	-5.819439	115.565598	3.924823	-13.586671	-2.293201	1.452468	11.376662	-2.443098	-1.618418	-0.007525	-0.474661	-15.618236	8.250930	1.206309	30.348652	-12.273875	-39.672146	-15.634750	-1.259884	14.548938	-4.291990	2.496760	-0.911333	12.577786	7.861234	-1.602580	-26.555365	-11.347184	40.911610	3.518202	2.903922	-2.672053	12.510259	2.688737	2.663053	1.795361	-7.200701	37.072178	-1.639609	10.998650	-0.536900	0.442732	-11.974327	-0.096800	2.317136	-5.139719	-64.398079	1.468959	3.911974	-0.052881	-1.940136	-1.055707	5.174790	
-7.407170	5.212227	5.854512	-5.098352	-5.823969	115.575706	3.923063	-13.586981	-2.253632	1.463608	11.378570	-2.513112	-1.598995	0.004920	-0.468609	-15.504457	8.104347	1.147671	30.235905	-12.131485	-39.779232	-15.578793	-1.289824	14.485151	-4.241480	2.495951	-0.900635	12.449756	7.677563	-1.580336	-26.436668	-11.230290	41.046459	3.523774	2.901837	-2.674321	12.512432	2.688869	2.663495	1.797381	-7.225640	37.051331	-1.638852	11.006147	-0.533685	0.431415	-11.972623	-0.098030	2.308449	-5.163621	-64.409027	1.468805	3.934138	-0.054266	-1.954209	-1.077598	5.175337	
-7.403255	5.212219	5.854824	-5.130976	-5.826611	115.559113	3.941449	-13.598644	-2.207302	1.450310	11.410740	-2.532731	-1.605271	0.035553	-0.469586	-15.434992	7.984735	1.077992	30.140734	-11.983819	-39.807915	-15.539601	-1.243944	14.414531	-4.197601	2.495263	-0.891329	12.350334	7.559867	-1.524751	-26.356932	-11.147245	40.994396	3.539785	2.897567	-2.677326	12.574463	2.691757	2.676497	1.791352	-7.249964	37.072224	-1.639971	11.006576	-0.539588	0.438308	-11.961662	-0.097391	2.298200	-5.189175	-64.386711	1.469137	3.938945	-0.052409	-1.952070	-1.088132	5.174804	
-7.397649	5.211968	5.855337	-5.175354	-5.849074	115.550598	3.956594	-13.667539	-2.182373	1.450878	11.494324	-2.525305	-1.616749	0.027169	-0.473184	-15.274154	7.757730	0.956329	29.973770	-11.659499	-39.740810	-15.527858	-1.191720	14.375125	-4.186388	2.495089	-0.888977	12.191229	7.334518	-1.355472	-26.196657	-10.844887	41.113655	3.468515	2.912116	-2.638483	12.585628	2.692312	2.678818	1.802087	-7.299043	37.092213	-1.641432	11.018878	-0.546271	0.448182	-11.956884	-0.096408	2.313750	-5.225694	-64.377365	1.468600	3.917835	-0.057123	-1.933726	-1.085330	5.173201	
-7.393474	5.212095	5.855333	-5.215312	-5.874475	115.540451	3.969829	-13.694007	-2.142195	1.457883	11.519506	-2.464869	-1.634354	0.030601	-0.478242	-15.134709	7.600063	0.889369	29.856007	-11.427696	-39.886173	-15.492172	-1.187409	14.321046	-4.152699	2.494570	-0.881784	12.073421	7.140016	-1.256043	-26.084955	-10.610272	41.322788	3.482140	2.909330	-2.673694	12.431525	2.685134	2.646526	1.817798	-7.350241	37.106525	-1.642010	11.038787	-0.548444	0.458206	-11.953738	-0.095327	2.329799	-5.262746	-64.350182	1.466408	3.900618	-0.072796	-1.916502	-1.081008	5.171844	
-7.385588	5.212687	5.856044	-5.259298	-5.898072	115.560806	3.973281	-13.705661	-2.046411	1.476585	11.525896	-2.485771	-1.633361	-0.030883	-0.479705	-15.167658	7.678537	0.868002	29.946865	-11.453970	-40.036022	-15.499429	-1.209719	14.342421	-4.140954	2.494420	-0.879366	12.141776	7.165464	-1.361456	-26.135977	-10.657081	41.229538	3.484141	2.946015	-2.674812	12.463031	2.686595	2.653102	1.835072	-7.405613	37.098907	-1.644962	11.066467	-0.562139	0.472021	-11.942216	-0.093963	2.339696	-5.296588	-64.384995	1.467934	3.892331	-0.059528	-1.911492	-1.082978	5.171353	
-7.375301	5.212709	5.860000	-5.288490	-5.914493	115.627129	3.974937	-13.708428	-2.001009	1.476694	11.517194	-2.526066	-1.623268	-0.065419	-0.477721	-15.156082	7.663455	0.847749	29.938366	-11.401310	-39.989956	-15.490479	-1.156923	14.336111	-4.084592	2.493529	-0.867424	12.133348	7.132695	-1.410295	-26.103876	-10.599284	41.241825	3.485082	2.955319	-2.674963	12.305548	2.679355	2.620089	1.843018	-7.435146	37.026264	-1.645097	11.063799	-0.561461	0.450073	-11.936601	-0.096425	2.345041	-5.311891	-64.443741	1.468752	3.898094	-0.054069	-1.892313	-1.100619	5.169007	
